<?xml version="1.0" standalone="no"?>
<!DOCTYPE svg PUBLIC "-//W3C//DTD SVG 20010904//EN"
 "http://www.w3.org/TR/2001/REC-SVG-20010904/DTD/svg10.dtd">
<svg version="1.0" xmlns="http://www.w3.org/2000/svg"
 width="512.000000pt" height="512.000000pt" viewBox="0 0 512.000000 512.000000"
 preserveAspectRatio="xMidYMid meet">

<g transform="translate(0.000000,512.000000) scale(0.100000,-0.100000)"
fill="#000000" stroke="none">
<path d="M2475 4559 c-38 -4 -97 -16 -130 -27 -33 -10 -541 -225 -1128 -477
-973 -417 -1072 -461 -1112 -500 -103 -101 -128 -251 -63 -382 39 -77 100
-122 257 -189 l141 -59 0 -588 c0 -578 0 -588 19 -577 25 13 97 13 122 0 19
-11 19 -1 19 540 0 525 1 551 18 546 10 -3 101 -42 202 -85 l185 -80 5 -348
c5 -331 7 -351 29 -413 72 -205 240 -373 506 -507 66 -34 254 -101 355 -128
551 -145 1235 -87 1695 143 184 92 369 255 437 387 69 133 70 144 77 523 l6
343 424 182 c461 198 492 216 539 310 65 131 40 281 -63 382 -41 39 -140 83
-1132 509 -651 278 -1114 471 -1153 480 -90 19 -173 24 -255 15z m199 -1000
c80 -13 165 -57 194 -99 19 -29 22 -46 22 -135 0 -90 -3 -106 -23 -136 -46
-68 -160 -109 -307 -109 -142 0 -257 39 -304 103 -17 23 -21 46 -24 135 -4 99
-2 110 20 141 59 86 247 131 422 100z"/>
</g>
</svg>
